# File created by Blade
# Date/Time:  Mon Sep 22 17:38:34 2014
# Frame Rate: 120.000 fps
#------------------------------------------------------
:FULLY-SPECIFIED
:DEGREES
1825
root -0.078422 36.787805 5.282104 -15.271146 18.830989 1.690873
RightUpLeg 20.429740 -15.654481 3.636359
RightLeg -1.624042 -0.000000 0.000000
RightFoot -17.365538 -31.194842 12.283357
RightToeBase 7.765683 -0.000000 -0.000000
LeftUpLeg -63.832680 46.778545 -11.587008
LeftLeg 110.763196 -0.000000 -0.000000
LeftFoot 25.452544 19.555260 -35.610737
LeftToeBase -3.796213 -0.000000 0.000000
Spine 29.066826 -18.470953 -2.099566
RightShoulder 3.077979 -25.192133 -10.122893
RightArm 18.555473 -14.047720 58.121332
RightForeArm 9.485482 -0.000000 42.434428
RightHand 0.525477 -0.000000 -4.913785
RightHandThumb1 -24.326973 -0.000000 -32.862282
LeftShoulder -11.910372 26.595784 8.381779
LeftArm 62.051481 -40.538320 -60.929428
LeftForeArm 32.543454 -0.000000 40.566844
LeftHand -18.001192 -0.000000 -9.336448
LeftHandThumb1 -26.253704 0.000000 33.147579
Head 14.857202 11.598780 -0.064721
1826
root -0.075520 36.798068 5.278469 -15.195616 18.771203 1.791125
RightUpLeg 20.302670 -15.618407 3.556926
RightLeg -1.467440 -0.000000 0.000000
RightFoot -17.415685 -31.173861 12.292941
RightToeBase 7.926374 -0.000000 -0.000000
LeftUpLeg -63.445647 46.631068 -11.346805
LeftLeg 110.425916 -0.000000 -0.000000
LeftFoot 25.367333 19.589072 -35.667259
LeftToeBase -3.794469 -0.000000 0.000000
Spine 29.078525 -18.404950 -2.202777
RightShoulder 3.059912 -25.206841 -10.077935
RightArm 18.501444 -14.086539 58.337149
RightForeArm 9.387702 -0.000000 42.216565
RightHand 0.439862 -0.000000 -5.368667
RightHandThumb1 -24.326973 -0.000000 -32.862282
LeftShoulder -11.892705 26.632820 8.409359
LeftArm 62.052019 -40.587342 -60.918733
LeftForeArm 32.583576 -0.000000 40.584699
LeftHand -18.011930 -0.000000 -9.396964
LeftHandThumb1 -26.253704 0.000000 33.147579
Head 14.817207 11.657190 -0.043338
1827
root -0.070745 36.809377 5.275354 -15.129817 18.668668 1.912354
RightUpLeg 20.194256 -15.574059 3.447293
RightLeg -1.306810 -0.000000 0.000000
RightFoot -17.443524 -31.126845 12.287526
RightToeBase 7.661149 -0.000000 -0.000000
LeftUpLeg -62.988930 46.509134 -11.042076
LeftLeg 110.036414 -0.000000 -0.000000
LeftFoot 25.298035 19.599551 -35.766841
LeftToeBase -4.089496 -0.000000 0.000000
Spine 29.106584 -18.305475 -2.320239
RightShoulder 3.061005 -25.241618 -10.058000
RightArm 18.456781 -14.095177 58.574308
RightForeArm 9.472264 -0.000000 42.005735
RightHand 0.353996 -0.000000 -4.890103
RightHandThumb1 -24.326973 -0.000000 -32.862282
LeftShoulder -11.915889 26.656146 8.420498
LeftArm 62.054104 -40.602372 -60.891388
LeftForeArm 32.622534 -0.000000 40.602580
LeftHand -18.068554 0.000000 -9.495902
LeftHandThumb1 -26.253704 0.000000 33.147579
Head 14.768187 11.715093 -0.039906
1828
root -0.065968 36.821260 5.272877 -15.063369 18.525699 2.039841
RightUpLeg 20.088923 -15.547698 3.323328
RightLeg -1.148816 -0.000000 0.000000
RightFoot -17.457188 -31.036663 12.232291
RightToeBase 7.652100 -0.000000 -0.000000
LeftUpLeg -62.510839 46.433477 -10.720946
LeftLeg 109.613809 -0.000000 -0.000000
LeftFoot 25.072722 19.673968 -35.875602
LeftToeBase -4.218481 -0.000000 0.000000
Spine 29.145026 -18.190240 -2.440927
RightShoulder 3.080608 -25.272467 -10.070976
RightArm 18.442428 -14.222711 58.753489
RightForeArm 9.608954 -0.000000 41.808051
RightHand 0.332214 -0.000000 -5.090858
RightHandThumb1 -24.326973 -0.000000 -32.862282
LeftShoulder -11.978554 26.646486 8.443779
LeftArm 62.013437 -40.574539 -60.854401
LeftForeArm 32.660856 -0.000000 40.619268
LeftHand -18.038827 -0.000000 -9.586427
LeftHandThumb1 -26.253704 0.000000 33.147579
Head 14.715029 11.791570 -0.068267
1829
root -0.061311 36.832973 5.271485 -14.997242 18.353759 2.177030
RightUpLeg 19.996484 -15.497578 3.194981
RightLeg -1.011195 -0.000000 0.000000
RightFoot -17.429015 -30.942680 12.142012
RightToeBase 7.605511 -0.000000 -0.000000
LeftUpLeg -62.007716 46.379055 -10.367504
LeftLeg 109.165113 -0.000000 -0.000000
LeftFoot 24.830931 19.756994 -35.915274
LeftToeBase -4.297342 -0.000000 0.000000
Spine 29.178215 -18.055255 -2.563544
RightShoulder 3.123398 -25.327067 -10.097597
RightArm 18.397771 -14.280458 58.987337
RightForeArm 9.522740 -0.000000 41.663841
RightHand 0.341637 -0.000000 -5.066068
RightHandThumb1 -24.326973 -0.000000 -32.862282
LeftShoulder -12.072784 26.665907 8.440438
LeftArm 62.003456 -40.532209 -60.789978
LeftForeArm 32.607863 -0.000000 40.599172
LeftHand -17.981112 -0.000000 -9.603565
LeftHandThumb1 -26.253704 0.000000 33.147579
Head 14.660200 11.897619 -0.109228
1830
root -0.056355 36.843729 5.270553 -14.917816 18.148069 2.296737
RightUpLeg 19.900390 -15.421786 3.095575
RightLeg -0.905810 -0.000000 0.000000
RightFoot -17.414445 -30.829300 12.091891
RightToeBase 7.584192 -0.000000 -0.000000
LeftUpLeg -61.493440 46.336155 -9.942219
LeftLeg 108.680136 -0.000000 -0.000000
LeftFoot 24.712179 19.905811 -36.222310
LeftToeBase -4.771269 -0.000000 0.000000
Spine 29.176938 -17.904955 -2.639287
RightShoulder 3.141834 -25.397329 -10.136840
RightArm 18.395223 -14.429528 59.144789
RightForeArm 9.465080 -0.000000 41.533263
RightHand 0.293862 -0.000000 -5.135145
RightHandThumb1 -24.326973 -0.000000 -32.862282
LeftShoulder -12.165073 26.641368 8.461333
LeftArm 61.948014 -40.438902 -60.754404
LeftForeArm 32.540618 0.000000 40.600654
LeftHand -18.026608 -0.000000 -9.594933
LeftHandThumb1 -26.253704 0.000000 33.147579
Head 14.611617 12.016130 -0.159705
1831
root -0.054147 36.853564 5.271257 -14.838223 17.930151 2.409168
RightUpLeg 19.827167 -15.313519 3.019687
RightLeg -0.861850 -0.000000 0.000000
RightFoot -17.360003 -30.765934 12.019609
RightToeBase 7.559658 -0.000000 -0.000000
LeftUpLeg -61.002397 46.318458 -9.532280
LeftLeg 108.176919 -0.000000 -0.000000
LeftFoot 24.663671 20.022261 -36.141658
LeftToeBase -5.138364 -0.000000 0.000000
Spine 29.157499 -17.736469 -2.706207
RightShoulder 3.163212 -25.492325 -10.168553
RightArm 18.401402 -14.632404 59.254520
RightForeArm 9.478048 -0.000000 41.418935
RightHand 0.199564 -0.000000 -4.715940
RightHandThumb1 -24.326973 -0.000000 -32.862282
LeftShoulder -12.238459 26.652113 8.451878
LeftArm 61.928534 -40.390367 -60.693463
LeftForeArm 32.480407 0.000000 40.574596
LeftHand -17.994162 -0.000000 -9.554376
LeftHandThumb1 -26.253704 0.000000 33.147579
Head 14.584306 12.114666 -0.173799
1832
root -0.049565 36.861265 5.269644 -14.733925 17.748604 2.509212
RightUpLeg 19.738115 -15.241252 2.948964
RightLeg -0.844069 -0.000000 0.000000
RightFoot -17.309231 -30.698176 11.933814
RightToeBase 7.536341 -0.000000 -0.000000
LeftUpLeg -60.555380 46.230983 -9.147971
LeftLeg 107.660518 -0.000000 -0.000000
LeftFoot 24.480121 20.115223 -36.156532
LeftToeBase -4.812943 -0.000000 0.000000
Spine 29.098957 -17.631086 -2.750916
RightShoulder 3.188359 -25.588664 -10.224976
RightArm 18.414942 -14.888161 59.329844
RightForeArm 9.543386 -0.000000 41.331553
RightHand 0.090039 0.000000 -4.427426
RightHandThumb1 -24.326973 -0.000000 -32.862282
LeftShoulder -12.341208 26.693254 8.399703
LeftArm 61.933979 -40.340847 -60.608988
LeftForeArm 32.417086 -0.000000 40.531910
LeftHand -17.944688 0.000000 -9.498579
LeftHandThumb1 -26.253704 0.000000 33.147579
Head 14.576303 12.218567 -0.226752
1833
root -0.044414 36.868982 5.271890 -14.635620 17.567086 2.602507
RightUpLeg 19.676599 -15.115922 2.900079
RightLeg -0.868168 -0.000000 0.000000
RightFoot -17.269118 -30.667383 11.902843
RightToeBase 7.515506 -0.000000 -0.000000
LeftUpLeg -60.083106 46.166404 -8.745598
LeftLeg 107.136627 -0.000000 -0.000000
LeftFoot 24.328138 20.260196 -36.289861
LeftToeBase -5.288683 -0.000000 0.000000
Spine 29.030253 -17.521511 -2.773191
RightShoulder 3.185781 -25.701591 -10.261019
RightArm 18.436598 -15.138192 59.376967
RightForeArm 9.536983 -0.000000 41.258426
RightHand 0.067538 -0.000000 -4.119692
RightHandThumb1 -24.326973 -0.000000 -32.862282
LeftShoulder -12.457030 26.761010 8.307297
LeftArm 62.001555 -40.299610 -60.549631
LeftForeArm 32.422194 0.000000 40.501929
LeftHand -18.043858 -0.000000 -9.504170
LeftHandThumb1 -26.253704 0.000000 33.147579
Head 14.592656 12.300003 -0.302060
